# AST/ASF file generated using VICON BodyLanguage
# -----------------------------------------------
:version 1.10
:name VICON
:units
  mass 1.0
  length 0.45
  angle deg
:documentation
   .ast/.asf automatically generated from VICON data using
   VICON BodyBuilder and BodyLanguage model FoxedUp or BRILLIANT.MOD
:root
   order TX TY TZ RX RY RZ
   axis XYZ
   position 0 0 0  
   orientation 0 -0 0 
:bonedata
  begin
     id 1 
     name lhipjoint
     direction 0.432694 -0.693742 0.575759 
     length 2.19277 
     axis 0 -0 0  XYZ
  end
  begin
     id 2 
     name lfemur
     direction 0.34202 -0.939693 0  
     length 6.69022  
     axis 0 -0 20  XYZ
    dof rx ry rz
    limits (-160.0 20.0)
           (-70.0 70.0)
           (-60.0 70.0)
  end
  begin
     id 3 
     name ltibia
     direction 0.34202 -0.939693 0   
     length 6.50337   
     axis 0 -0 20   XYZ
    dof rx
    limits (-10.0 170.0)
  end
  begin
     id 4 
     name lfoot
     direction 0.158999 -0.435969 0.885805   
     length 2.70564   
     axis -90 -1.13533e-015 20   XYZ
    dof rx rz
    limits (-45.0 90.0)
           (-70.0 20.0)
  end
  begin
     id 5 
     name ltoes
     direction -0.00592919 0.00964381 0.999936   
     length 1.29929   
     axis -90 -1.13533e-015 20   XYZ
    dof rx
    limits (-90.0 20.0)
  end
  begin
     id 6 
     name rhipjoint
     direction -0.414359 -0.700339 0.581234   
     length 2.17212  
     axis 0 -0 0  XYZ 
  end
  begin
     id 7 
     name rfemur
     direction -0.34202 -0.939693 0   
     length 7.17659   
     axis 0 -0 -20   XYZ
    dof rx ry rz
    limits (-160.0 20.0)
           (-70.0 70.0)
           (-70.0 60.0)
  end
  begin
     id 8 
     name rtibia
     direction -0.34202 -0.939693 0   
     length 6.36669   
     axis 0 -0 -20   XYZ
    dof rx
    limits (-10.0 170.0)
 end
 begin
     id 9 
     name rfoot
     direction -0.137064 -0.37658 0.916188   
     length 2.22351  
     axis -90 1.13533e-015 -20   XYZ
    dof rx rz
    limits (-45.0 90.0)
           (-20.0 70.0)
  end
  begin
     id 10 
     name rtoes
     direction -0.000784077 -0.00289101 0.999996   
     length 1.09522   
     axis -90 1.13533e-015 -20   XYZ
    dof rx
    limits (-90.0 20.0)
  end
  begin
     id 11 
     name lowerback
     direction -0.0176242 0.984912 -0.172157   
     length 1.65301   
     axis 0 -0 0   XYZ
    dof rx ry rz
    limits (-20.0 45.0)
           (-30.0 30.0)
           (-30.0 30.0)
  end
  begin
     id 12 
     name upperback
     direction -0.00218128 0.998776 -0.0494072   
     length 1.67776   
     axis 0 -0 0   XYZ
    dof rx ry rz
    limits (-20.0 45.0)
           (-30.0 30.0)
           (-30.0 30.0)
  end
  begin
     id 13 
     name thorax
     direction 0.00544186 0.999658 0.0255711   
     length 1.72293   
     axis 0 -0 0   XYZ
    dof rx ry rz
    limits (-20.0 45.0)
           (-30.0 30.0)
           (-30.0 30.0)
  end
  begin
     id 14 
     name lowerneck
     direction -0.105325 0.983841 0.144785   
     length 2.14226   
     axis 0 -0 0   XYZ
    dof rx ry rz
    limits (-20.0 45.0)
           (-30.0 30.0)
           (-30.0 30.0)
  end
  begin
     id 15 
     name upperneck
     direction 0.0547957 0.988053 -0.144041   
     length 2.17508   
     axis 0 -0 0   XYZ
    dof rx ry rz
    limits (-20.0 45.0)
           (-30.0 30.0)
           (-30.0 30.0)
  end
  begin
     id 16
     name head
     direction 0.0247488 0.997534 -0.0656813  
     length 2.20048  
     axis 0 -0 0   XYZ
    dof rx ry rz
    limits (-20.0 45.0)
           (-30.0 30.0)
           (-30.0 30.0)
  end
  begin
     id 17 
     name lclavicle
     direction 0.820559 0.567247 -0.0701026  
     length 4.09615  
     axis 0 -0 0   XYZ
    dof ry rz
    limits (-20.0 10.0)
           (0.0 20.0)
  end
  begin
     id 18 
     name lhumerus
     direction 0.999977 -0.0067566 -9.96392e-005   
     length 4.59333   
     axis -180 -30 -90   XYZ
    dof rx ry rz
    limits (-60.0 90.0)
           (-90.0 90.0)
           (-90.0 90.0)
  end
  begin
     id 19
     name lradius
     direction 1 -4.48982e-011 -2.53425e-027   
     length 2.81151   
     axis -180 -30 -90   XYZ
    dof rx
    limits (-10.0 170.0)
  end
  begin
     id 20
     name lwrist
     direction 1 -4.48939e-011 -7.39254e-028   
     length 1.40576   
     axis 2.56395e-016 90 90   XYZ
    dof ry
    limits (-180.0 0.0)
 end
  begin
     id 21 
     name lhand
     direction 1 -4.48939e-011 -1.47851e-027   
     length 0.895651   
     axis 9.43423e-016 90 90   XYZ
    dof rx rz
    limits (-90.0 90.0)
           (-45.0 45.0)
  end
  begin
     id 22 
     name lfingers
     direction 1 -4.48978e-011 -2.95702e-027   
     length 0.722097   
     axis 1.88685e-015 90 90   XYZ
    dof rx
    limits (0.0 90.0)
  end
  begin
     id 23
     name lthumb
     direction 0.707107 -6.34931e-011 0.707107   
     length 1.03679   
     axis -90 45 -9.86935e-015   XYZ
    dof rx rz
    limits (-45.0 45.0)
           (-45.0 45.0)
  end
  begin
     id 24 
     name rclavicle
     direction -0.831414 0.553102 -0.0531864   
     length 4.24872  
     axis 0 -0 0   XYZ 
    dof ry rz
    limits (-10.0 20.0)
           (-20.0 0.0)
  end
  begin
     id 25 
     name rhumerus
     direction -0.999916 -0.000939607 0.0129331  
     length 4.74834   
     axis -180 30 90   XYZ
    dof rx ry rz
    limits (-90.0 60.0)
           (-90.0 90.0)
           (-90.0 90.0)
  end
  begin
     id 26 
     name rradius
     direction -1 -4.48956e-011 -1.31752e-027   
     length 2.79907   
     axis -180 30 90   XYZ
    dof rx
    limits (-10.0 170.0)
  end
  begin
     id 27 
     name rwrist
     direction -1 -4.4897e-011 -7.39254e-028   
     length 1.39954   
     axis 2.56395e-016 -90 -90   XYZ
    dof ry
    limits (-180.0 0.0)
  end
  begin
     id 28
     name rhand
     direction -0.999997 -0.00250697 0.000800838   
     length 0.953304   
     axis 9.43423e-016 -90 -90   XYZ
    dof rx rz
    limits (-90.0 90.0)
           (-45.0 45.0)
  end
  begin
     id 29
     name rfingers
     direction -1 -4.48954e-011 -2.95702e-027   
     length 0.763342   
     axis 1.88685e-015 -90 -90   XYZ
    dof rx
    limits (0.0 90.0)
  end
  begin
     id 30
     name rthumb
     direction -0.709701 -0.00217037 0.7045   
     length 1.10115   
     axis -90 -45 9.86935e-015   XYZ
    dof rx rz
    limits (-45.0 45.0)
           (-45.0 45.0)
  end
:hierarchy
  begin
    root lhipjoint rhipjoint lowerback
    lhipjoint lfemur
    lfemur ltibia
    ltibia lfoot
    lfoot ltoes
    rhipjoint rfemur
    rfemur rtibia
    rtibia rfoot
    rfoot rtoes
    lowerback upperback
    upperback thorax
    thorax lowerneck lclavicle rclavicle
    lowerneck upperneck
    upperneck head
    lclavicle lhumerus
    lhumerus lradius
    lradius lwrist
    lwrist lhand lthumb
    lhand lfingers
    rclavicle rhumerus
    rhumerus rradius
    rradius rwrist
    rwrist rhand rthumb
    rhand rfingers
  end

#!OML:ASF G:\ViconDB\ViconDB\414\test\team2\shane.ASF
:FULLY-SPECIFIED
:DEGREES
32
root 3.20228 16.7023 -33.2895 -4.02814 -8.87398 -4.00802
lowerback 9.37853 1.01112 5.19778
upperback 4.43218 1.79042 2.20288
thorax -0.557742 0.936901 -0.810153
lowerneck -15.6387 -4.30059 -7.06966
upperneck 14.5802 -4.73761 2.97283
head 7.29006 -2.39503 1.60339
rclavicle 2.96189e-014 4.21423e-014
rhumerus -42.4347 24.1128 -94.4468
rradius 102.407
rwrist 3.50519
rhand -27.2807 -10.3561
rfingers 7.12502
rthumb -0.691227 -40.3347
lclavicle 2.96189e-014 4.21423e-014
lhumerus -47.6584 -21.8777 99.4377
lradius 30.5915
lwrist -12.1265
lhand -34.4474 5.89763
lfingers 7.12502
lthumb -7.61141 35.7407
rfemur 22.5195 -10.7577 19.3634
rtibia 6.87824
rfoot -20.4033 9.09245
rtoes -12.3277
lfemur -21.4838 14.2484 -7.20598
ltibia 37.4335
lfoot -27.8447 -15.1883
ltoes -13.2712
33
root 3.19808 16.6909 -33.1902 -3.80962 -8.8785 -4.23932
lowerback 9.27975 1.00229 5.35755
upperback 4.36856 1.7875 2.15703
thorax -0.562497 0.937089 -0.944926
lowerneck -15.6023 -4.28889 -7.0782
upperneck 15.288 -4.69099 2.73519
head 7.50879 -2.40187 1.53011
rclavicle 1.71452e-014 -7.95139e-015
rhumerus -41.1876 23.7676 -93.1357
rradius 105.905
rwrist 4.64951
rhand -27.6354 -10.3064
rfingers 7.12502
rthumb -1.03378 -40.2836
lclavicle 1.71452e-014 -7.95139e-015
lhumerus -47.9702 -21.9641 99.4362
lradius 30.4154
lwrist -12.2958
lhand -34.2916 5.538
lfingers 7.12502
lthumb -7.46108 35.3864
rfemur 24.8781 -10.7436 19.6362
rtibia 1.98895
rfoot -18.0541 8.91224
rtoes -12.6695
lfemur -22.1241 14.484 -7.28204
ltibia 36.2845
lfoot -27.9944 -15.5157
ltoes -12.8589
34
root 3.19599 16.6805 -33.0907 -3.55424 -8.9002 -4.31759
lowerback 9.174 0.983884 5.35497
upperback 4.23803 1.76159 2.11785
thorax -0.640507 0.921028 -0.981274
lowerneck -15.5613 -4.26394 -7.0988
upperneck 16.277 -4.59146 2.3243
head 7.81548 -2.40508 1.40626
rclavicle 1.1778e-014 1.59028e-015
rhumerus -39.6815 23.5135 -91.6206
rradius 109.066
rwrist 5.20965
rhand -27.9494 -10.439
rfingers 7.12502
rthumb -1.33709 -40.4146
lclavicle 1.1778e-014 1.59028e-015
lhumerus -48.0846 -21.6592 99.3137
lradius 30.0367
lwrist -12.8552
lhand -33.9938 5.32646
lfingers 7.12502
lthumb -7.17355 35.1849
rfemur 25.8925 -10.6774 19.7072
rtibia -6.04305e-014
rfoot -17.3053 8.84882
rtoes -12.3768
lfemur -22.8289 14.7778 -7.58327
ltibia 35.2681
lfoot -28.2674 -15.7615
ltoes -13.2615
35
root 3.19401 16.6648 -32.9931 -3.42918 -8.91544 -4.53028
lowerback 9.19404 0.941807 5.45022
upperback 4.17539 1.71825 2.11536
thorax -0.715625 0.897912 -1.03444
lowerneck -15.4688 -4.21945 -7.22051
upperneck 17.3226 -4.4618 2.02759
head 8.13921 -2.3932 1.34015
rclavicle 1.68967e-015 1.15295e-014
rhumerus -37.6534 23.3109 -90.0227
rradius 111.802
rwrist 5.43036
rhand -28.2904 -11.5662
rfingers 7.12502
rthumb -1.66642 -41.5394
lclavicle 1.68967e-015 1.15295e-014
lhumerus -48.3013 -21.7078 99.3767
lradius 29.9274
lwrist -13.0179
lhand -33.6388 5.55646
lfingers 7.12502
lthumb -6.83092 35.4263
rfemur 26.1675 -10.6335 19.9004
rtibia -1.11319e-013
rfoot -17.7342 8.45222
rtoes -12.8658
lfemur -23.3853 14.9257 -7.66915
ltibia 34.4425
lfoot -28.2111 -15.9044
ltoes -12.6645
36
root 3.18778 16.6686 -32.895 -3.14018 -8.87167 -4.79651
lowerback 9.09672 0.892606 5.57418
upperback 3.99189 1.66596 2.12084
thorax -0.851924 0.867385 -1.09369
lowerneck -15.3388 -4.13181 -7.14215
upperneck 18.669 -4.26689 1.47558
head 8.5485 -2.37034 1.16264
rclavicle 7.60351e-015 -6.75868e-015
rhumerus -35.7562 23.5955 -88.2584
rradius 114.184
rwrist 5.23502
rhand -28.7295 -13.2296
rfingers 7.12502
rthumb -2.09046 -43.1991
lclavicle 7.60351e-015 -6.75868e-015
lhumerus -48.7126 -21.5669 99.3519
lradius 30.109
lwrist -13.1051
lhand -33.2057 5.50264
lfingers 7.12502
lthumb -6.41281 35.3856
rfemur 26.2314 -10.6569 20.1887
rtibia 4.77083e-014
rfoot -18.0688 8.20634
rtoes -13.0092
lfemur -24.0689 14.9942 -7.75894
ltibia 33.7774
lfoot -28.2451 -15.8801
ltoes -12.6026
37
root 3.19087 16.6437 -32.8008 -2.979 -8.80324 -5.19546
lowerback 9.24758 0.797551 5.8666
upperback 3.81412 1.58603 2.14457
thorax -1.11565 0.820843 -1.23047
lowerneck -15.135 -4.04527 -6.95501
upperneck 20.1203 -4.06243 0.779825
head 8.98183 -2.35632 0.918023
rclavicle -2.35063e-014 -2.18663e-014
rhumerus -33.5626 24.0607 -86.2881
rradius 116.07
rwrist 4.82073
rhand -29.2049 -15.4897
rfingers 7.12502
rthumb -2.54964 -45.4542
lclavicle 7.60351e-015 -6.75868e-015
lhumerus -48.7126 -21.5669 99.3519
lradius 30.109
lwrist -13.1051
lhand -33.2057 5.50264
lfingers 7.12502
lthumb -6.41281 35.3856
rfemur 26.5037 -10.6891 20.5277
rtibia -1.27222e-014
rfoot -18.4796 8.20159
rtoes -13.0865
lfemur -24.6821 15.0856 -7.68147
ltibia 33.3654
lfoot -28.1737 -15.7307
ltoes -12.2417
38
root 3.19362 16.6103 -32.696 -2.9903 -8.94384 -4.98994
lowerback 9.12989 0.834626 5.50411
upperback 3.81614 1.5935 2.02352
thorax -1.05671 0.824011 -1.15189
lowerneck -14.9514 -4.0101 -7.06428
upperneck 21.6962 -3.92036 0.432352
head 9.48859 -2.36295 0.828555
rclavicle -3.18055e-014 -1.72943e-014
rhumerus -30.857 24.503 -84.1668
rradius 117.368
rwrist 4.01831
rhand -29.8787 -17.8834
rfingers 7.12502
rthumb -3.20028 -47.8391
lclavicle 7.60351e-015 -6.75868e-015
lhumerus -48.7126 -21.5669 99.3519
lradius 30.109
lwrist -13.1051
lhand -33.2057 5.50264
lfingers 7.12502
lthumb -6.41281 35.3856
rfemur 26.9065 -10.4243 20.1302
rtibia -3.81667e-014
rfoot -18.9177 8.33785
rtoes -12.8438
lfemur -25.1083 15.6944 -8.38375
ltibia 33.1447
lfoot -28.1387 -15.3739
ltoes -12.487
39
root 3.20606 16.5775 -32.5917 -2.94197 -9.15748 -5.22422
lowerback 9.11026 0.818565 5.78665
upperback 3.79233 1.59365 1.93456
thorax -1.05869 0.82665 -1.40126
lowerneck -15.0386 -3.98406 -6.91644
upperneck 23.6681 -3.73675 -0.251646
head 10.1868 -2.37798 0.573817
rclavicle 1.46355e-014 4.77083e-015
rhumerus -28.1198 25.0473 -81.8312
rradius 118.205
rwrist 2.79522
rhand -29.5853 -19.6144
rfingers 7.12502
rthumb -2.917 -49.5742
lclavicle 1.46355e-014 4.77083e-015
lhumerus -48.2082 -20.3368 98.4783
lradius 28.5839
lwrist -14.4866
lhand -32.8555 5.21433
lfingers 7.12502
lthumb -6.07471 35.1072
rfemur 27.2917 -10.1242 20.2081
rtibia 4.13472e-014
rfoot -19.2387 8.57497
rtoes -12.3851
lfemur -25.5173 15.9716 -8.44942
ltibia 33.1727
lfoot -27.7247 -15.2216
ltoes -12.5001
40
root 3.22043 16.5426 -32.4875 -2.93934 -9.51479 -5.45828
lowerback 9.12168 0.847712 5.9528
upperback 3.826 1.64516 1.96795
thorax -1.02186 0.854699 -1.46383
lowerneck -15.1514 -3.92622 -6.8484
upperneck 25.7428 -3.41391 -1.10956
head 10.9488 -2.36695 0.278267
rclavicle 5.40446e-014 -5.96354e-015
rhumerus -25.0979 25.4541 -79.1635
rradius 118.445
rwrist 1.52219
rhand -29.3835 -20.7159
rfingers 7.12502
rthumb -2.72205 -50.6783
lclavicle 5.40446e-014 -5.96354e-015
lhumerus -47.6176 -19.485 98.0493
lradius 27.7861
lwrist -15.1311
lhand -32.9754 5.06697
lfingers 7.12502
lthumb -6.19046 34.9565
rfemur 27.7223 -9.686 20.3007
rtibia -2.54444e-014
rfoot -19.6239 8.63963
rtoes -12.8938
lfemur -25.7339 16.226 -8.48519
ltibia 33.3284
lfoot -27.2076 -14.788
ltoes -12.7409
41
root 3.22956 16.5111 -32.3808 -3.01521 -9.70279 -5.56458
lowerback 9.10392 0.813535 6.0183
upperback 3.89674 1.59784 1.85286
thorax -0.936007 0.835975 -1.61355
lowerneck -15.303 -3.86623 -6.74246
upperneck 27.9687 -3.11865 -1.77713
head 11.8131 -2.3543 0.0266412
rclavicle -1.3741e-014 -2.90226e-014
rhumerus -22.1562 25.6292 -76.7457
rradius 118.273
rwrist -0.149097
rhand -28.5891 -20.8088
rfingers 7.12502
rthumb -1.95483 -50.7796
lclavicle -1.3741e-014 -2.90226e-014
lhumerus -47.1446 -19.0881 97.6364
lradius 27.0876
lwrist -15.5016
lhand -32.9461 5.84764
lfingers 7.12502
lthumb -6.16221 35.738
rfemur 28.2087 -9.41029 20.2518
rtibia -2.8625e-014
rfoot -19.861 8.6743
rtoes -13.2084
lfemur -25.8792 16.0641 -8.52862
ltibia 33.612
lfoot -26.3438 -14.757
ltoes -13.044
42
root 3.241 16.4808 -32.2696 -3.04841 -10.1791 -5.66816
lowerback 9.27728 0.873227 6.03814
upperback 3.85955 1.69255 1.7958
thorax -1.06081 0.879529 -1.69705
lowerneck -15.4426 -3.78591 -6.88028
upperneck 30.3284 -2.72216 -2.35766
head 12.7818 -2.32421 -0.151424
rclavicle 2.48605e-014 6.36111e-015
rhumerus -19.5652 25.8984 -74.2267
rradius 117.015
rwrist -0.197
rhand -28.2357 -19.7731
rfingers 7.12502
rthumb -1.61356 -49.7468
lclavicle 2.48605e-014 6.36111e-015
lhumerus -46.8459 -18.4911 97.2995
lradius 26.5804
lwrist -15.9422
lhand -33.2973 5.50635
lfingers 7.12502
lthumb -6.50126 35.3866
rfemur 28.6162 -8.85493 20.2451
rtibia 4.13472e-014
rfoot -19.9572 8.69941
rtoes -13.7132
lfemur -25.9666 16.3654 -8.63721
ltibia 33.9787
lfoot -25.3624 -14.9531
ltoes -12.7097
43
root 3.24937 16.455 -32.1553 -3.0014 -10.6065 -5.76725
lowerback 9.23475 0.951652 6.03255
upperback 3.85174 1.79044 1.6724
thorax -1.03445 0.929698 -1.82996
lowerneck -15.5497 -3.70551 -6.70591
upperneck 32.6518 -2.31136 -3.18608
head 13.7768 -2.29414 -0.491656
rclavicle 3.3371e-014 2.05245e-014
rhumerus -17.3489 26.5934 -71.6885
rradius 115.449
rwrist 0.885391
rhand -28.266 -19.7515
rfingers 7.12502
rthumb -1.64283 -49.7249
lclavicle 3.3371e-014 2.05245e-014
lhumerus -46.4201 -17.8802 96.731
lradius 25.9731
lwrist -16.5496
lhand -33.7729 5.59836
lfingers 7.12502
lthumb -6.96031 35.4639
rfemur 28.9872 -8.36198 20.2798
rtibia -2.22639e-014
rfoot -20.2125 8.55531
rtoes -13.7402
lfemur -25.9826 16.3658 -8.66707
ltibia 34.3778
lfoot -24.109 -15.2597
ltoes -12.7153
